<svg xmlns="http://www.w3.org/2000/svg" width="263.027" height="210.612" viewBox="0 0 263.027 210.612"><g transform="translate(-93.757 -97.501)"><path d="M321.291,198.345c5.427,57.826-45.355,109.806-113.568,109.768-68.214.038-119-51.941-113.568-109.768,5.407-57.98,56.2-100.732,113.568-100.844C265.091,97.613,315.884,140.365,321.291,198.345Z" transform="translate(0)" fill="#ffe0c6"/><g transform="translate(119.109 121.863)"><path d="M267.2,208H152.446a8.6,8.6,0,0,1-8.268-6.232l-19.46-67.947a5.3,5.3,0,0,1,5.1-6.766h147.1" transform="translate(-124.51 -127.053)" fill="#fff"/></g><g transform="translate(131.519 106.833)"><circle cx="21.808" cy="21.808" r="21.808" transform="translate(0.609 167.18) rotate(-80.681)" fill="#fff"/><g transform="translate(79.932 124.196)"><circle cx="21.808" cy="21.808" r="21.808" transform="matrix(0.159, -0.987, 0.987, 0.159, 0, 43.062)" fill="#fff"/><circle cx="3.152" cy="3.152" r="3.152" transform="translate(21.843 21.843)" fill="#fff"/></g><circle cx="21.808" cy="21.808" r="21.808" transform="translate(14.102 132.026)" fill="none" stroke="#262732" stroke-linecap="round" stroke-miterlimit="10" stroke-width="10.844"/><path d="M178.544,240.847h85.431a21.919,21.919,0,0,0,20.729-14.8l35.207-102.436a21.919,21.919,0,0,1,20.729-14.8h25.613" transform="translate(-146.41 -108.821)" fill="none" stroke="#262732" stroke-linecap="round" stroke-miterlimit="10" stroke-width="10.844"/><circle cx="3.152" cy="3.152" r="3.152" transform="translate(32.757 150.681)" fill="none" stroke="#262732" stroke-linecap="round" stroke-miterlimit="10" stroke-width="3.615"/><g transform="translate(93.368 132.026)"><circle cx="21.808" cy="21.808" r="21.808" transform="translate(0 0)" fill="none" stroke="#262732" stroke-linecap="round" stroke-miterlimit="10" stroke-width="10.844"/><circle cx="3.152" cy="3.152" r="3.152" transform="translate(18.656 18.655)" fill="none" stroke="#262732" stroke-linecap="round" stroke-miterlimit="10" stroke-width="3.615"/></g><g transform="translate(0 23.511)"><path d="M282.249,218.285H167.5a8.6,8.6,0,0,1-8.268-6.232l-19.46-67.947a5.3,5.3,0,0,1,5.1-6.765h147.1" transform="translate(-139.564 -137.341)" fill="none" stroke="#262732" stroke-linecap="round" stroke-miterlimit="10" stroke-width="10.844"/></g><line x2="136.833" transform="translate(26.92 43.157)" fill="none" stroke="#262732" stroke-linecap="round" stroke-miterlimit="10" stroke-width="7.229"/><line x2="115.164" transform="translate(38.594 72.234)" fill="none" stroke="#262732" stroke-linecap="round" stroke-miterlimit="10" stroke-width="7.229"/></g><path d="M112.506,335.7s83.855-28.371,197.019,0" transform="translate(-3.293 -39.62)" fill="none" stroke="#262732" stroke-linecap="round" stroke-miterlimit="10" stroke-width="7.229"/></g></svg>